<mxfile host="app.diagrams.net" agent="Mozilla/5.0 (Windows NT 10.0; Win64; x64) AppleWebKit/537.36 (KHTML, like Gecko) Chrome/134.0.0.0 Safari/537.36" version="26.2.5">
  <diagram name="Page-1" id="6Rc8qLUpl516wuHLVfkS">
    <mxGraphModel dx="1653" dy="777" grid="1" gridSize="10" guides="1" tooltips="1" connect="1" arrows="1" fold="1" page="1" pageScale="1" pageWidth="850" pageHeight="1100" math="0" shadow="0">
      <root>
        <mxCell id="0" />
        <mxCell id="1" parent="0" />
        <mxCell id="m5yTfTwGPNgab40GCjPw-2" value="" style="aspect=fixed;sketch=0;html=1;dashed=0;whitespace=wrap;verticalLabelPosition=bottom;verticalAlign=top;fillColor=#2875E2;strokeColor=#ffffff;points=[[0.005,0.63,0],[0.1,0.2,0],[0.9,0.2,0],[0.5,0,0],[0.995,0.63,0],[0.72,0.99,0],[0.5,1,0],[0.28,0.99,0]];shape=mxgraph.kubernetes.icon2;kubernetesLabel=1;prIcon=api" parent="1" vertex="1">
          <mxGeometry x="172.64" y="185" width="72.92" height="70" as="geometry" />
        </mxCell>
        <mxCell id="m5yTfTwGPNgab40GCjPw-7" value="" style="shape=image;verticalLabelPosition=bottom;labelBackgroundColor=default;verticalAlign=top;aspect=fixed;imageAspect=0;editableCssRules=.*;image=data:image/svg+xml,PHN2ZyB4bWxuczp4bGluaz0iaHR0cDovL3d3dy53My5vcmcvMTk5OS94bGluayIgeG1sbnM9Imh0dHA6Ly93d3cudzMub3JnLzIwMDAvc3ZnIiB2aWV3Qm94PSIwLjAwMzc5MTQ1ODIwNjI1MTI2MzYgMC4yMTQ3ODMyNjYxODY3MTQxNyAxNDYuMzY2MjI2MTk2Mjg5MDYgMTM4Ljc1MDUwMzU0MDAzOTA2IiBkYXRhLW5hbWU9IkxheWVyIDEiIGlkPSJMYXllcl8xIiB3aWR0aD0iMTQ2LjM2NjIyNjE5NjI4OTA2IiBoZWlnaHQ9IjEzOC43NTA1MDM1NDAwMzkwNiI+JiN4YTsgPGRlZnM+JiN4YTsgIDxzdHlsZT4mI3hhOyAgIC5jbHMtMXtmaWxsOiMyOWI1ZTg7ZmlsbC1ydWxlOmV2ZW5vZGQ7fSYjeGE7ICA8L3N0eWxlPiYjeGE7IDwvZGVmcz4mI3hhOyA8cGF0aCBkPSJNMTM0LjgxLDYwLjFsLTE2LjQ3LDkuNDlMMTM0LjgxLDc5YTguNjUsOC42NSwwLDEsMS04LjY3LDE1bC0yOS41MS0xN2E4LjY4LDguNjgsMCwwLDEtNC4zMy03Ljc1LDguNDgsOC40OCwwLDAsMSwuMzEtMiw4LjY4LDguNjgsMCwwLDEsNC01LjE5bDI5LjUxLTE2Ljk0QTguNjksOC42OSwwLDAsMSwxMzgsNDguMzEsOC41OCw4LjU4LDAsMCwxLDEzNC44MSw2MC4xWm0tMTUuNTksNDZMODkuNzIsODkuMTNhOC43Miw4LjcyLDAsMCwwLTEzLjA2LDcuNDh2MzMuOWE4LjY5LDguNjksMCwwLDAsMTcuMzcsMHYtMTlMMTEwLjU0LDEyMWE4LjY2LDguNjYsMCwxLDAsOC42OC0xNVptLTM0LTMzLjE2TDcyLjkyLDg1LjA5YTIuNDQsMi40NCwwLDAsMS0xLjU0LjY1SDY3Ljc3YTIuNTEsMi41MSwwLDAsMS0xLjU0LS42NUw1NCw3Mi45YTIuNDUsMi40NSwwLDAsMS0uNjQtMS41MnYtMy42QTIuNSwyLjUsMCwwLDEsNTQsNjYuMjVMNjYuMjMsNTQuMDZhMi41LDIuNSwwLDAsMSwxLjU0LS42NGgzLjYxYTIuNDUsMi40NSwwLDAsMSwxLjU0LjY0TDg1LjE4LDY2LjI1YTIuNDksMi40OSwwLDAsMSwuNjMsMS41M3YzLjZBMi40NCwyLjQ0LDAsMCwxLDg1LjE4LDcyLjlabS05LjgtMy4zOEEyLjU5LDIuNTksMCwwLDAsNzQuNzMsNjhsLTMuNTUtMy41MWEyLjUxLDIuNTEsMCwwLDAtMS41NC0uNjRoLS4xM2EyLjQ2LDIuNDYsMCwwLDAtMS41My42NEw2NC40Myw2OGEyLjUxLDIuNTEsMCwwLDAtLjYzLDEuNTV2LjEzYTIuNDEsMi40MSwwLDAsMCwuNjMsMS41Mkw2OCw3NC43YTIuNDgsMi40OCwwLDAsMCwxLjUzLjY0aC4xM2EyLjUxLDIuNTEsMCwwLDAsMS41NC0uNjRsMy41NS0zLjUzYTIuNDksMi40OSwwLDAsMCwuNjUtMS41MlpNMTkuOTMsMzMuMDgsNDkuNDQsNTBhOC43Myw4LjczLDAsMCwwLDEzLjA3LTcuNDlWOC42NGE4LjY5LDguNjksMCwwLDAtMTcuMzcsMHYxOWwtMTYuNTMtOS41YTguNjUsOC42NSwwLDEsMC04LjY4LDE1Wk04NC42OSw1MS4xNmE4LjY0LDguNjQsMCwwLDAsNS0xLjEzbDI5LjUtMTdhOC42NSw4LjY1LDAsMSwwLTguNjgtMTVMOTQsMjcuNjF2LTE5YTguNjksOC42OSwwLDAsMC0xNy4zNywwdjMzLjlBOC42Niw4LjY2LDAsMCwwLDg0LjY5LDUxLjE2Wk01NC40OCw4OGE4LjU4LDguNTgsMCwwLDAtNSwxLjEzTDE5LjkzLDEwNi4wNmE4LjY2LDguNjYsMCwxLDAsOC42OCwxNWwxNi41My05LjQ5djE5YTguNjksOC42OSwwLDAsMCwxNy4zNywwVjk2LjYxQTguNjUsOC42NSwwLDAsMCw1NC40OCw4OFptLTgtMTUuODdhOC42MSw4LjYxLDAsMCwwLTQtMTBMMTMsNDUuMTRBOC42OSw4LjY5LDAsMCwwLDEuMTcsNDguMzEsOC41OSw4LjU5LDAsMCwwLDQuMzUsNjAuMWwxNi40Nyw5LjQ5TDQuMzUsNzlBOC42NSw4LjY1LDAsMSwwLDEzLDk0bDI5LjQ4LTE3QTguNTksOC41OSwwLDAsMCw0Ni40Nyw3Mi4xM1ptOTMuMTUtNTYuMjJIMTM4LjN2MS42M2gxLjMyYy42MSwwLDEtLjI4LDEtLjhTMTQwLjI2LDE1LjkxLDEzOS42MiwxNS45MVptLTIuOTQtMS41aDNjMS42MiwwLDIuNy44OSwyLjcsMi4yN2EyLjE2LDIuMTYsMCwwLDEtMS4wOCwxLjlsMS4xNywxLjY4di4zNGgtMS42OUwxMzkuNjIsMTlIMTM4LjNWMjAuNmgtMS42MlptOC4zLDMuMjJhNS40OCw1LjQ4LDAsMCwwLTUuNTgtNS44M2MtMy4zMSwwLTUuNTEsMi4zOS01LjUxLDUuODMsMCwzLjI4LDIuMiw1LjgyLDUuNTEsNS44MkE1LjQ3LDUuNDcsMCwwLDAsMTQ1LDE3LjYzWm0xLjM4LDBjMCwzLjg5LTIuNiw3LjE0LTcsNy4xNHMtNi44OS0zLjI4LTYuODktNy4xNCwyLjU3LTcuMTQsNi44OS03LjE0UzE0Ni4zNiwxMy43MywxNDYuMzYsMTcuNjNaIiBjbGFzcz0iY2xzLTEiPiYjeGE7IDwvcGF0aD4mI3hhOzwvc3ZnPg==;" parent="1" vertex="1">
          <mxGeometry x="440.19" y="340" width="76" height="72.36" as="geometry" />
        </mxCell>
        <mxCell id="m5yTfTwGPNgab40GCjPw-8" value="" style="shape=image;verticalLabelPosition=bottom;labelBackgroundColor=default;verticalAlign=top;aspect=fixed;imageAspect=0;editableCssRules=.*;image=data:image/svg+xml,PHN2ZyB4bWxuczp4bGluaz0iaHR0cDovL3d3dy53My5vcmcvMTk5OS94bGluayIgeG1sbnM9Imh0dHA6Ly93d3cudzMub3JnLzIwMDAvc3ZnIiB4bWw6c3BhY2U9InByZXNlcnZlIiBzdHlsZT0iZW5hYmxlLWJhY2tncm91bmQ6bmV3IDAgMCA0MC4xIDQyOyIgdmlld0JveD0iMCAwIDQwLjIwMDAwMDc2MjkzOTQ1IDQyIiB5PSIwcHgiIHg9IjBweCIgaWQ9IkxheWVyXzEiIHZlcnNpb249IjEuMSIgd2lkdGg9IjQwLjIwMDAwMDc2MjkzOTQ1IiBoZWlnaHQ9IjQyIj4mI3hhOyA8c3R5bGUgdHlwZT0idGV4dC9jc3MiPiYjeGE7ICAuc3Qwe2ZpbGw6I0ZGMzYyMTt9JiN4YTsgPC9zdHlsZT4mI3hhOyA8bWV0YWRhdGE+JiN4YTsgICYjeGE7ICAgJiN4YTsgICAmI3hhOyAgICYjeGE7ICAgJiN4YTsgICYjeGE7IDwvbWV0YWRhdGE+JiN4YTsgPGc+JiN4YTsgIDxwYXRoIGQ9Ik00MC4xLDMxLjF2LTcuNGwtMC44LTAuNUwyMC4xLDMzLjdsLTE4LjItMTBsMC00LjNsMTguMiw5LjlsMjAuMS0xMC45di03LjNsLTAuOC0wLjVMMjAuMSwyMS4yTDIuNiwxMS42JiMxMDsmIzk7JiM5O0wyMC4xLDJsMTQuMSw3LjdsMS4xLTAuNlY4LjNMMjAuMSwwTDAsMTAuOVYxMkwyMC4xLDIzbDE4LjItMTB2NC40bC0xOC4yLDEwTDAuOCwxNi44TDAsMTcuM3Y3LjRsMjAuMSwxMC45bDE4LjItOS45djQuM2wtMTguMiwxMCYjMTA7JiM5OyYjOTtMMC44LDI5LjVMMCwzMHYxLjFMMjAuMSw0Mkw0MC4xLDMxLjF6IiBjbGFzcz0ic3QwIj4mI3hhOyAgPC9wYXRoPiYjeGE7IDwvZz4mI3hhOzwvc3ZnPg==;" parent="1" vertex="1">
          <mxGeometry x="441" y="180" width="76.19" height="80" as="geometry" />
        </mxCell>
        <mxCell id="m5yTfTwGPNgab40GCjPw-9" value="" style="shape=image;verticalLabelPosition=bottom;labelBackgroundColor=default;verticalAlign=top;aspect=fixed;imageAspect=0;editableCssRules=.*;image=data:image/svg+xml,PHN2ZyB4bWxuczp4bGluaz0iaHR0cDovL3d3dy53My5vcmcvMTk5OS94bGluayIgeG1sbnM9Imh0dHA6Ly93d3cudzMub3JnLzIwMDAvc3ZnIiBmaWxsPSJub25lIiB2aWV3Qm94PSIwLjc0OTUxNDEwMjkzNTc5MSAtMC4wMDA1Mzc4NzIzMTQ0NTMxMjUgMjk5Ljk5OTgxNjg5NDUzMTI1IDE2My4xNDg3ODg0NTIxNDg0NCIgaGVpZ2h0PSIxNjMuMTQ4Nzg4NDUyMTQ4NDQiIHdpZHRoPSIyOTkuOTk5ODE2ODk0NTMxMjUiPiYjeGE7IDxwYXRoIGZpbGw9IiNGRjRCNEIiIGQ9Ik0xNTAuNzMxIDEwMS41NDdMOTguMTM4NyA3My43NDcxTDYuODQ2NzQgMjUuNDk2OUM2Ljc2MzQgMjUuNDEzNiA2LjU5Njc0IDI1LjQxMzYgNi41MTM0MSAyNS40MTM2QzMuMTgwMDcgMjMuODMwMyAtMC4yMzY2MDggMjcuMTYzNiAxLjAxMzQgMzAuNDk3TDQ3LjUzMDIgMTQ5LjEzOUw0Ny41Mzg1IDE0OS4xNjRDNDcuNTg4NSAxNDkuMjgxIDQ3LjYzMDIgMTQ5LjM5NyA0Ny42ODAyIDE0OS41MTRDNDkuNTg4NSAxNTMuOTM5IDUzLjc1NTIgMTU2LjY3MiA1OC4yODg2IDE1Ny43NDdDNTguNjcxOSAxNTcuODMxIDU4Ljk0NjEgMTU3LjkwNiA1OS40MDY0IDE1Ny45OThDNTkuODY0NSAxNTguMSA2MC41MDUyIDE1OC4yMzkgNjEuMDU1MiAxNTguMjgxQzYxLjE0NjkgMTU4LjI4OSA2MS4yMzAyIDE1OC4yODkgNjEuMzIxOSAxNTguMjk3SDYxLjM4ODZDNjEuNDU1MiAxNTguMzA2IDYxLjUyMTkgMTU4LjMwNiA2MS41ODg2IDE1OC4zMTRINjEuNjgwMkM2MS43Mzg2IDE1OC4zMjIgNjEuODA1MiAxNTguMzIyIDYxLjg2MzYgMTU4LjMyMkg2MS45NzE5QzYyLjAzODYgMTU4LjMzMSA2Mi4xMDUyIDE1OC4zMzEgNjIuMTcxOSAxNTguMzMxVjE1OC4zMzFDMTIxLjA4NCAxNjQuNzU0IDE4MC41MTkgMTY0Ljc1NCAyMzkuNDMxIDE1OC4zMzFWMTU4LjMzMUMyNDAuMTM5IDE1OC4zMzEgMjQwLjgzMSAxNTguMjk3IDI0MS40OTcgMTU4LjIzMUMyNDEuNzE0IDE1OC4yMDYgMjQxLjkyMiAxNTguMTgxIDI0Mi4xMzEgMTU4LjE1NkMyNDIuMTU2IDE1OC4xNDcgMjQyLjE4OSAxNTguMTQ3IDI0Mi4yMTQgMTU4LjEzOUMyNDIuMzU2IDE1OC4xMjIgMjQyLjQ5NyAxNTguMDk3IDI0Mi42MzkgMTU4LjA3MkMyNDIuODQ3IDE1OC4wNDcgMjQzLjA1NiAxNTguMDA2IDI0My4yNjQgMTU3Ljk2NEMyNDMuNjgxIDE1Ny44NzIgMjQzLjg3IDE1Ny44MDYgMjQ0LjQzNiAxNTcuNjExQzI0NS4wMDEgMTU3LjQxNyAyNDUuOTQgMTU3LjA3NyAyNDYuNTI3IDE1Ni43OTRDMjQ3LjExNSAxNTYuNTExIDI0Ny41MjIgMTU2LjIzOSAyNDguMDE0IDE1NS45MzFDMjQ4LjYyMiAxNTUuNTQ3IDI0OS4yMDEgMTU1LjE1NSAyNDkuNzg4IDE1NC43MTVDMjUwLjA0MSAxNTQuNTIxIDI1MC4yMTQgMTU0LjM5NyAyNTAuMzk3IDE1NC4yMjJMMjUwLjI5NyAxNTQuMTY0TDE1MC43MzEgMTAxLjU0N1oiPiYjeGE7IDwvcGF0aD4mI3hhOyA8cGF0aCBmaWxsPSIjN0QzNTNCIiBkPSJNMjk0Ljc2NiAyNS40OTgxSDI5NC42ODNMMjAzLjM1NyA3My43NDgzTDI1NC4xMjQgMTQ5LjM1N0wzMDAuNTI0IDMwLjQ5ODFWMzAuMzMxNUMzMDEuNjkxIDI2LjgzMTQgMjk4LjEwOCAyMy42NjQ4IDI5NC43NjYgMjUuNDk4MSI+JiN4YTsgPC9wYXRoPiYjeGE7IDxwYXRoIGZpbGw9IiNCRDQwNDMiIGQ9Ik0xNTUuNTk4IDIuNTU1NzJDMTUzLjI2NCAtMC44NTI2MjQgMTQ4LjE4MSAtMC44NTI2MjQgMTQ1LjkzMSAyLjU1NTcyTDk4LjEzODkgNzMuNzQ3N0wxNTAuNzMxIDEwMS41NDhMMjUwLjM5OCAxNTQuMjIyQzI1MS4wMjQgMTUzLjYwOSAyNTEuNTI2IDE1My4wMTIgMjUyLjA1NiAxNTIuMzgxQzI1Mi44MDYgMTUxLjQ1NiAyNTMuNTA2IDE1MC40NjUgMjU0LjEyMyAxNDkuMzU2TDIwMy4zNTYgNzMuNzQ3N0wxNTUuNTk4IDIuNTU1NzJaIj4mI3hhOyA8L3BhdGg+JiN4YTs8L3N2Zz4=;" parent="1" vertex="1">
          <mxGeometry x="640" y="310" width="78.83" height="42.83" as="geometry" />
        </mxCell>
        <mxCell id="m5yTfTwGPNgab40GCjPw-10" value="" style="shape=image;verticalLabelPosition=bottom;labelBackgroundColor=default;verticalAlign=top;aspect=fixed;imageAspect=0;editableCssRules=.*;image=data:image/svg+xml,PHN2ZyB4bWxuczp4bGluaz0iaHR0cDovL3d3dy53My5vcmcvMTk5OS94bGluayIgeG1sbnM9Imh0dHA6Ly93d3cudzMub3JnLzIwMDAvc3ZnIiB4bWw6c3BhY2U9InByZXNlcnZlIiBzdHlsZT0iZW5hYmxlLWJhY2tncm91bmQ6bmV3IDAgMCA0MC4xIDQyOyIgdmlld0JveD0iMCAwIDQwLjIwMDAwMDc2MjkzOTQ1IDQyIiB5PSIwcHgiIHg9IjBweCIgaWQ9IkxheWVyXzEiIHZlcnNpb249IjEuMSIgd2lkdGg9IjQwLjIwMDAwMDc2MjkzOTQ1IiBoZWlnaHQ9IjQyIj4mI3hhOyA8c3R5bGUgdHlwZT0idGV4dC9jc3MiPiYjeGE7ICAuc3Qwe2ZpbGw6I0ZGMzYyMTt9JiN4YTsgPC9zdHlsZT4mI3hhOyA8bWV0YWRhdGE+JiN4YTsgICYjeGE7ICAgJiN4YTsgICAmI3hhOyAgICYjeGE7ICAgJiN4YTsgICYjeGE7IDwvbWV0YWRhdGE+JiN4YTsgPGc+JiN4YTsgIDxwYXRoIGQ9Ik00MC4xLDMxLjF2LTcuNGwtMC44LTAuNUwyMC4xLDMzLjdsLTE4LjItMTBsMC00LjNsMTguMiw5LjlsMjAuMS0xMC45di03LjNsLTAuOC0wLjVMMjAuMSwyMS4yTDIuNiwxMS42JiMxMDsmIzk7JiM5O0wyMC4xLDJsMTQuMSw3LjdsMS4xLTAuNlY4LjNMMjAuMSwwTDAsMTAuOVYxMkwyMC4xLDIzbDE4LjItMTB2NC40bC0xOC4yLDEwTDAuOCwxNi44TDAsMTcuM3Y3LjRsMjAuMSwxMC45bDE4LjItOS45djQuM2wtMTguMiwxMCYjMTA7JiM5OyYjOTtMMC44LDI5LjVMMCwzMHYxLjFMMjAuMSw0Mkw0MC4xLDMxLjF6IiBjbGFzcz0ic3QwIj4mI3hhOyAgPC9wYXRoPiYjeGE7IDwvZz4mI3hhOzwvc3ZnPg==;" parent="1" vertex="1">
          <mxGeometry x="171" y="350.00000000000006" width="76.19" height="80" as="geometry" />
        </mxCell>
        <mxCell id="m5yTfTwGPNgab40GCjPw-11" value="" style="sketch=0;aspect=fixed;pointerEvents=1;shadow=0;dashed=0;html=1;strokeColor=none;labelPosition=center;verticalLabelPosition=bottom;verticalAlign=top;align=center;fillColor=#00188D;shape=mxgraph.azure.computer" parent="1" vertex="1">
          <mxGeometry x="640" y="340" width="50" height="45" as="geometry" />
        </mxCell>
        <mxCell id="m5yTfTwGPNgab40GCjPw-12" value="" style="shape=actor;whiteSpace=wrap;html=1;" parent="1" vertex="1">
          <mxGeometry x="630" y="352.83000000000004" width="29.81" height="40" as="geometry" />
        </mxCell>
        <mxCell id="m5yTfTwGPNgab40GCjPw-13" value="" style="endArrow=classic;html=1;rounded=0;" parent="1" edge="1">
          <mxGeometry width="50" height="50" relative="1" as="geometry">
            <mxPoint x="426" y="219.5" as="sourcePoint" />
            <mxPoint x="280" y="220" as="targetPoint" />
          </mxGeometry>
        </mxCell>
        <mxCell id="m5yTfTwGPNgab40GCjPw-14" value="" style="endArrow=classic;html=1;rounded=0;" parent="1" edge="1">
          <mxGeometry width="50" height="50" relative="1" as="geometry">
            <mxPoint x="460" y="290" as="sourcePoint" />
            <mxPoint x="460" y="325.68" as="targetPoint" />
          </mxGeometry>
        </mxCell>
        <mxCell id="m5yTfTwGPNgab40GCjPw-15" value="" style="endArrow=classic;html=1;rounded=0;" parent="1" edge="1">
          <mxGeometry width="50" height="50" relative="1" as="geometry">
            <mxPoint x="490.95" y="325.68" as="sourcePoint" />
            <mxPoint x="490.95" y="290" as="targetPoint" />
          </mxGeometry>
        </mxCell>
        <mxCell id="m5yTfTwGPNgab40GCjPw-16" value="" style="endArrow=classic;html=1;rounded=0;" parent="1" edge="1">
          <mxGeometry width="50" height="50" relative="1" as="geometry">
            <mxPoint x="550" y="370" as="sourcePoint" />
            <mxPoint x="600" y="370" as="targetPoint" />
          </mxGeometry>
        </mxCell>
        <mxCell id="m5yTfTwGPNgab40GCjPw-17" value="" style="endArrow=classic;html=1;rounded=0;" parent="1" edge="1">
          <mxGeometry width="50" height="50" relative="1" as="geometry">
            <mxPoint x="600" y="352" as="sourcePoint" />
            <mxPoint x="550" y="352.16" as="targetPoint" />
          </mxGeometry>
        </mxCell>
        <mxCell id="m5yTfTwGPNgab40GCjPw-18" value="" style="endArrow=classic;html=1;rounded=0;" parent="1" edge="1">
          <mxGeometry width="50" height="50" relative="1" as="geometry">
            <mxPoint x="420" y="380" as="sourcePoint" />
            <mxPoint x="280" y="380" as="targetPoint" />
          </mxGeometry>
        </mxCell>
        <mxCell id="m5yTfTwGPNgab40GCjPw-19" value="" style="endArrow=classic;html=1;rounded=0;" parent="1" edge="1">
          <mxGeometry width="50" height="50" relative="1" as="geometry">
            <mxPoint x="206.96" y="335.68" as="sourcePoint" />
            <mxPoint x="206.96" y="300" as="targetPoint" />
          </mxGeometry>
        </mxCell>
        <mxCell id="m5yTfTwGPNgab40GCjPw-20" value="" style="sketch=0;points=[[0,0,0],[0.25,0,0],[0.5,0,0],[0.75,0,0],[1,0,0],[0,1,0],[0.25,1,0],[0.5,1,0],[0.75,1,0],[1,1,0],[0,0.25,0],[0,0.5,0],[0,0.75,0],[1,0.25,0],[1,0.5,0],[1,0.75,0]];outlineConnect=0;fontColor=#232F3E;fillColor=#01A88D;strokeColor=#ffffff;dashed=0;verticalLabelPosition=bottom;verticalAlign=top;align=center;html=1;fontSize=12;fontStyle=0;aspect=fixed;shape=mxgraph.aws4.resourceIcon;resIcon=mxgraph.aws4.machine_learning;" parent="1" vertex="1">
          <mxGeometry x="439.19" y="90" width="78" height="78" as="geometry" />
        </mxCell>
        <mxCell id="m5yTfTwGPNgab40GCjPw-21" value="Hybris Product Feed API" style="text;html=1;align=center;verticalAlign=middle;whiteSpace=wrap;rounded=0;" parent="1" vertex="1">
          <mxGeometry x="164.1" y="260" width="90" height="30" as="geometry" />
        </mxCell>
        <mxCell id="m5yTfTwGPNgab40GCjPw-23" value="Databricks Model" style="text;html=1;align=center;verticalAlign=middle;whiteSpace=wrap;rounded=0;" parent="1" vertex="1">
          <mxGeometry x="449.61" y="50" width="60" height="30" as="geometry" />
        </mxCell>
        <mxCell id="m5yTfTwGPNgab40GCjPw-24" value="Model reads user defined parameters that can be updated from Streamlit front end and selects products based on model scoring" style="text;html=1;align=center;verticalAlign=middle;whiteSpace=wrap;rounded=0;" parent="1" vertex="1">
          <mxGeometry x="519.02" y="185" width="170" height="70" as="geometry" />
        </mxCell>
        <mxCell id="m5yTfTwGPNgab40GCjPw-25" value="Streamlit Front End / Human in the loop" style="text;html=1;align=center;verticalAlign=middle;whiteSpace=wrap;rounded=0;" parent="1" vertex="1">
          <mxGeometry x="600" y="400" width="113.62" height="30" as="geometry" />
        </mxCell>
        <mxCell id="m5yTfTwGPNgab40GCjPw-26" value="Selected items are read from Snowflake using Databricks Workflow, which then executes a pull request on those items within the Hybris database" style="text;html=1;align=center;verticalAlign=middle;whiteSpace=wrap;rounded=0;" parent="1" vertex="1">
          <mxGeometry x="279.19" y="280" width="160" height="90" as="geometry" />
        </mxCell>
        <mxCell id="m5yTfTwGPNgab40GCjPw-27" value="Databricks executes a get request to retrieve all web ready products" style="text;html=1;align=center;verticalAlign=middle;whiteSpace=wrap;rounded=0;" parent="1" vertex="1">
          <mxGeometry x="285" y="150" width="140" height="48" as="geometry" />
        </mxCell>
        <mxCell id="m5yTfTwGPNgab40GCjPw-28" value="" style="endArrow=classic;html=1;rounded=0;" parent="1" edge="1">
          <mxGeometry width="50" height="50" relative="1" as="geometry">
            <mxPoint x="279.19" y="240.5" as="sourcePoint" />
            <mxPoint x="425.19" y="240" as="targetPoint" />
          </mxGeometry>
        </mxCell>
        <mxCell id="lC0ufuoF5A_SaRrsuBxp-1" value="" style="endArrow=classic;html=1;rounded=0;" edge="1" parent="1">
          <mxGeometry width="50" height="50" relative="1" as="geometry">
            <mxPoint x="279.19" y="400.5" as="sourcePoint" />
            <mxPoint x="425.19" y="400" as="targetPoint" />
          </mxGeometry>
        </mxCell>
      </root>
    </mxGraphModel>
  </diagram>
</mxfile>
